<?xml version="1.0" encoding="UTF-8"?>
<svg width="160px" height="133px" viewBox="0 0 160 133" version="1.1" xmlns="http://www.w3.org/2000/svg" xmlns:xlink="http://www.w3.org/1999/xlink">
    <!-- Generator: Sketch 48.2 (47327) - http://www.bohemiancoding.com/sketch -->
    <title>Group 6</title>
    <desc>Created with Sketch.</desc>
    <defs></defs>
    <g id="About-Twic--1" stroke="none" stroke-width="1" fill="none" fill-rule="evenodd" transform="translate(-113.000000, -311.000000)">
        <g id="Group-2" transform="translate(16.000000, 240.000000)">
            <g id="Group-6" transform="translate(97.000000, 68.000000)">
                <path d="M60.8554687,135.5 C88.4697062,135.5 159.871094,98.1572062 159.871094,70.5429688 C159.871094,42.9287313 88.4697062,7.1015625 60.8554688,7.1015625 C33.2412313,7.1015625 -1.8189894e-12,27.3857625 -1.8189894e-12,55 C-1.8189894e-12,82.6142375 33.2412313,135.5 60.8554687,135.5 Z" id="Oval-3" fill="#DBF3F3" opacity="0.400000006"></path>
                <g id="handshake" transform="translate(47.000000, 43.000000)">
                    <path d="M4.019,31.962 C-1.395,24.129 -0.574,13.323 6.453,6.296 C12.673,0.076 22.234,-1.059 29.722,2.511 C29.722,2.511 30.309,2.821 30.702,3.043" id="Shape" stroke="#0DAFAC"></path>
                    <path d="M42.9960938,23.5722656 C35.9690937,30.5992656 26.185,21.822 26.185,21.822 C18.813,29.194 11.901,24.702 11.901,24.702 L26.185,10.418 C34.133,2.585 46.919,2.47 54.752,10.418 C62.585,18.366 61.893,27.5102617 54.06,35.3432617" id="Shape" fill="#CFEFEF"></path>
                    <path d="M39.989,20.872 L55.678,37.367 C57.057,38.852 57.226,41.349 55.448,43.127 C53.835,44.74 51.301,44.74 49.688,43.127 L48.688,42.127" id="Shape" stroke="#0DAFAC"></path>
                    <path d="M28.175,55.825 L29.64,57.29 C31.253,58.903 33.787,58.903 35.4,57.29 C37.013,55.677 37.013,53.143 35.4,51.53 L31.661,47.791" id="Shape" stroke="#0DAFAC"></path>
                    <path d="M42.159,46.771 C43.772,48.384 43.772,50.918 42.159,52.531 C40.546,54.144 38.012,54.144 36.399,52.531 L35.399,51.531" id="Shape" stroke="#0DAFAC"></path>
                    <path d="M38.485,43.098 L43.036,47.649 C44.649,49.262 47.19,49.384 48.803,47.771 C50.416,46.158 50.3,43.739 48.688,42.127 L44.072,37.511" id="Shape" stroke="#0DAFAC"></path>
                    <path d="M45.998,17.937 C38.971,24.964 26.185,17.822 26.185,17.822 C18.813,25.194 11.901,20.702 11.901,20.702 L26.185,6.418 C34.133,-1.415 46.919,-1.53 54.752,6.418 C62.585,14.366 62.327,27.412 54.494,35.245 L54.06,35.667" id="Shape" stroke="#0DAFAC"></path>
                    <path d="M1.743,40.257 C0.086,38.6 0.086,35.914 1.743,34.257 L5.523,30.477 C7.18,28.82 9.866,28.82 11.523,30.477 C13.18,32.134 13.18,34.82 11.523,36.477 L7.743,40.257 C6.086,41.914 3.399,41.914 1.743,40.257 Z" id="Shape" stroke="#0DAFAC" stroke-linecap="square"></path>
                    <path d="M8.243,45.757 C6.586,44.1 6.586,41.414 8.243,39.757 L12.023,35.977 C13.68,34.32 16.366,34.32 18.023,35.977 C19.68,37.634 19.68,40.32 18.023,41.977 L14.243,45.757 C12.586,47.414 9.899,47.414 8.243,45.757 Z" id="Shape" stroke="#0DAFAC" stroke-linecap="square"></path>
                    <path d="M14.743,51.257 C13.086,49.6 13.086,46.914 14.743,45.257 L18.523,41.477 C20.18,39.82 22.866,39.82 24.523,41.477 C26.18,43.134 26.18,45.82 24.523,47.477 L20.743,51.257 C19.086,52.914 16.399,52.914 14.743,51.257 Z" id="Shape" stroke="#0DAFAC" stroke-linecap="square"></path>
                    <path d="M21.243,56.757 C19.586,55.1 19.586,52.414 21.243,50.757 L25.023,46.977 C26.68,45.32 29.366,45.32 31.023,46.977 C32.68,48.634 32.68,51.32 31.023,52.977 L27.243,56.757 C25.586,58.414 22.899,58.414 21.243,56.757 Z" id="Shape" stroke="#0DAFAC" stroke-linecap="square"></path>
                </g>
                <path d="M117,42 C117,38.6666667 120.333333,35.3333333 127,32" id="Path-2" stroke="#0DAFAC"></path>
                <path d="M119,46 C119,44.3333333 120.666667,42.6666667 124,41" id="Path-2" stroke="#DBF3F3"></path>
                <g id="Group-4" transform="translate(8.000000, 28.500000) rotate(-20.000000) translate(-8.000000, -28.500000) translate(2.000000, 23.000000)">
                    <polygon id="Star" fill-opacity="0.15" fill="#0DAFAC" points="7.2 8.55555556 3.80588745 9.5680776 4.8 6.11111111 3.80588745 2.65414463 7.2 3.66666667 10.5941125 2.65414463 9.6 6.11111111 10.5941125 9.5680776"></polygon>
                    <polygon id="Star" stroke="#0DAFAC" points="4.8 7.33333333 1.40588745 8.34585537 2.4 4.88888889 1.40588745 1.4319224 4.8 2.44444444 8.19411255 1.4319224 7.2 4.88888889 8.19411255 8.34585537"></polygon>
                </g>
                <g id="Group-4" opacity="0.5" transform="translate(58.000000, 8.500000) rotate(-51.000000) translate(-58.000000, -8.500000) translate(52.000000, 3.000000)">
                    <polygon id="Star" fill-opacity="0.15" fill="#0DAFAC" points="7.2 8.55555556 3.80588745 9.5680776 4.8 6.11111111 3.80588745 2.65414463 7.2 3.66666667 10.5941125 2.65414463 9.6 6.11111111 10.5941125 9.5680776"></polygon>
                    <polygon id="Star" stroke="#0DAFAC" points="4.8 7.33333333 1.40588745 8.34585537 2.4 4.88888889 1.40588745 1.4319224 4.8 2.44444444 8.19411255 1.4319224 7.2 4.88888889 8.19411255 8.34585537"></polygon>
                </g>
                <g id="Group-4" transform="translate(22.000000, 58.500000) rotate(13.000000) translate(-22.000000, -58.500000) translate(17.000000, 54.000000)">
                    <polygon id="Star" fill-opacity="0.15" fill="#0DAFAC" points="6 7 3.17157288 7.82842712 4 5 3.17157288 2.17157288 6 3 8.82842712 2.17157288 8 5 8.82842712 7.82842712"></polygon>
                    <polygon id="Star" stroke="#0DAFAC" points="4 6 1.17157288 6.82842712 2 4 1.17157288 1.17157288 4 2 6.82842712 1.17157288 6 4 6.82842712 6.82842712"></polygon>
                </g>
            </g>
        </g>
    </g>
</svg>