<?xml version="1.0" encoding="UTF-8"?>
<svg width="154px" height="132px" viewBox="0 0 154 132" version="1.1" xmlns="http://www.w3.org/2000/svg" xmlns:xlink="http://www.w3.org/1999/xlink">
    <!-- Generator: Sketch 48.2 (47327) - http://www.bohemiancoding.com/sketch -->
    <title>Group 6</title>
    <desc>Created with Sketch.</desc>
    <defs></defs>
    <g id="authentification-password-reset" stroke="none" stroke-width="1" fill="none" fill-rule="evenodd" transform="translate(-113.000000, -224.000000)">
        <g id="Popup">
            <g id="Alert-error" transform="translate(31.000000, 139.000000)">
                <g id="Group-6" transform="translate(82.000000, 82.000000)">
                    <path d="M60.8554687,134.5 C88.4697062,134.5 153.023438,97.9150187 153.023438,70.3007813 C153.023438,42.6865438 126.696269,3.8828125 99.0820313,3.8828125 C71.4677938,3.8828125 -1.8189894e-12,26.3857625 -1.8189894e-12,54 C-1.8189894e-12,81.6142375 33.2412313,134.5 60.8554687,134.5 Z" id="Oval-3" fill="#DBF3F3" opacity="0.400000006"></path>
                    <g id="lock-circle-open" transform="translate(56.000000, 39.000000)">
                        <path d="M8.5,24.5 L8.5,12.5 C8.5,5.9 13.9,0.5 20.5,0.5 C27.1,0.5 32.5,5.9 32.5,12.5" id="Shape" stroke="#0DAFAC" stroke-linecap="square"></path>
                        <circle id="Oval" fill="#CFEFEF" cx="22.5" cy="43.5" r="20"></circle>
                        <circle id="Oval" stroke="#0DAFAC" stroke-linecap="square" cx="20.5" cy="40.5" r="20"></circle>
                        <path d="M20.5,42.5 L20.5,48.5" id="Shape" stroke="#0DAFAC" stroke-linecap="square"></path>
                        <circle id="Oval" stroke="#0DAFAC" fill="#F1FAFA" stroke-linecap="square" cx="20.5" cy="36.5" r="6"></circle>
                    </g>
                    <path d="M117,41 C117,37.6666667 120.333333,34.3333333 127,31" id="Path-2" stroke="#0DAFAC"></path>
                    <path d="M119,45 C119,43.3333333 120.666667,41.6666667 124,40" id="Path-2" stroke="#DBF3F3"></path>
                    <g id="Group-4" transform="translate(110.000000, 107.500000) scale(-1, -1) rotate(-20.000000) translate(-110.000000, -107.500000) translate(104.000000, 102.000000)">
                        <polygon id="Star" fill-opacity="0.15" fill="#0DAFAC" points="7.2 8.55555556 3.80588745 9.5680776 4.8 6.11111111 3.80588745 2.65414463 7.2 3.66666667 10.5941125 2.65414463 9.6 6.11111111 10.5941125 9.5680776"></polygon>
                        <polygon id="Star" stroke="#0DAFAC" points="4.8 7.33333333 1.40588745 8.34585537 2.4 4.88888889 1.40588745 1.4319224 4.8 2.44444444 8.19411255 1.4319224 7.2 4.88888889 8.19411255 8.34585537"></polygon>
                    </g>
                    <g id="Group-4" opacity="0.5" transform="translate(99.000000, 8.500000) scale(-1, -1) rotate(-51.000000) translate(-99.000000, -8.500000) translate(93.000000, 3.000000)">
                        <polygon id="Star" fill-opacity="0.15" fill="#0DAFAC" points="7.2 8.55555556 3.80588745 9.5680776 4.8 6.11111111 3.80588745 2.65414463 7.2 3.66666667 10.5941125 2.65414463 9.6 6.11111111 10.5941125 9.5680776"></polygon>
                        <polygon id="Star" stroke="#0DAFAC" points="4.8 7.33333333 1.40588745 8.34585537 2.4 4.88888889 1.40588745 1.4319224 4.8 2.44444444 8.19411255 1.4319224 7.2 4.88888889 8.19411255 8.34585537"></polygon>
                    </g>
                    <g id="Group-4" transform="translate(22.186415, 67.806078) scale(-1, -1) rotate(13.000000) translate(-22.186415, -67.806078) translate(16.686415, 54.306078)">
                        <polygon id="Star" fill-opacity="0.15" fill="#0DAFAC" points="4 6 1.17157288 6.82842712 2 4 1.17157288 1.17157288 4 2 6.82842712 1.17157288 6 4 6.82842712 6.82842712"></polygon>
                        <polygon id="Star" stroke="#0DAFAC" points="6.49902109 24.4874013 3.67059396 25.3158284 4.49902109 22.4874013 3.67059396 19.6589742 6.49902109 20.4874013 9.32744821 19.6589742 8.49902109 22.4874013 9.32744821 25.3158284"></polygon>
                    </g>
                </g>
            </g>
        </g>
    </g>
</svg>