<?xml version="1.0" encoding="utf-8"?>
<!-- Generator: Adobe Illustrator 22.0.0, SVG Export Plug-In . SVG Version: 6.00 Build 0)  -->
<svg version="1.1" id="Calque_1" xmlns="http://www.w3.org/2000/svg" xmlns:xlink="http://www.w3.org/1999/xlink" x="0px" y="0px"
	 viewBox="0 0 80 29" style="enable-background:new 0 0 80 29;" xml:space="preserve">
<style type="text/css">
	.st0{filter:url(#Adobe_OpacityMaskFilter);}
	.st1{fill:#FFFFFF;}
	.st2{mask:url(#mask-2_1_);fill:#FFFFFF;}
	.st3{filter:url(#Adobe_OpacityMaskFilter_1_);}
	.st4{mask:url(#mask-4_1_);fill:#FFFFFF;}
	.st5{filter:url(#Adobe_OpacityMaskFilter_2_);}
	.st6{mask:url(#mask-6_1_);fill:#FFFFFF;}
	.st7{opacity:0.5;fill:none;stroke:#FFFFFF;enable-background:new    ;}
	.st8{enable-background:new    ;}
</style>
<title>Group 7</title>
<desc>Created with Sketch.</desc>
<g>
	<g id="Group-3" transform="translate(22.242631, 5.993303)">
		<g id="Clip-2">
		</g>
		<defs>
			<filter id="Adobe_OpacityMaskFilter" filterUnits="userSpaceOnUse" x="0.1" y="1.1" width="28.2" height="20.9">
				<feColorMatrix  type="matrix" values="1 0 0 0 0  0 1 0 0 0  0 0 1 0 0  0 0 0 1 0"/>
			</filter>
		</defs>
		<mask maskUnits="userSpaceOnUse" x="0.1" y="1.1" width="28.2" height="20.9" id="mask-2_1_">
			<g class="st0">
				<polygon id="path-1_1_" class="st1" points="0.1,22 28.3,22 28.3,1.1 0.1,1.1 				"/>
			</g>
		</mask>
		<path id="Fill-1" class="st2" d="M22.8,19.6c0.7-0.4,1-1.3,1-1.3c-1.6,0-2.2-1.4-2.5-2.6c1.9-0.1,3.4,0.3,3.6,1.5
			C25,19,22.8,19.6,22.8,19.6 M21.1,14.1L21.1,14.1L21.1,14.1C21,13.4,20,6.5,24,1.4c-3.2-0.9-5.2,0-6.6,4.1
			c-1.5,4.3-0.3,9.1-0.3,9.1c-1.1,0.3-2.4,0.7-8.1,2.3c-5.7,1.6-8.3-0.6-8.3-0.6c-2.6,6.8,3.7,6.5,8.2,4.4s8.8-4.2,8.8-4.2
			c0,0,1.4,4.9,7,4.9S29.6,13.8,21.1,14.1"/>
	</g>
	<g id="Group-6" transform="translate(45.975747, 5.535974)">
		<g id="Clip-5">
		</g>
		<defs>
			<filter id="Adobe_OpacityMaskFilter_1_" filterUnits="userSpaceOnUse" x="0" y="1" width="12.2" height="13.4">
				<feColorMatrix  type="matrix" values="1 0 0 0 0  0 1 0 0 0  0 0 1 0 0  0 0 0 1 0"/>
			</filter>
		</defs>
		<mask maskUnits="userSpaceOnUse" x="0" y="1" width="12.2" height="13.4" id="mask-4_1_">
			<g class="st3">
				<polygon id="path-3_1_" class="st1" points="12.2,14.5 12.2,1 0,1 0,14.5 				"/>
			</g>
		</mask>
		<path id="Fill-4" class="st4" d="M12.1,11c-0.3-0.6-1.4,0.2-1.9,0.5c0,0,0,0,0,0c-1.3,0.9-2.9,1.5-4.2,1.2c-1.8-0.3-2.5-3.1-1.6-6
			C5.3,4,6.7,1.9,8,2.1c1,0.1,1.3,0.9,1.2,1.6C9.1,4.2,8.6,4.7,7.9,4.7c0.8,1.1,2.7,1.1,3.3-0.3c0.5-1.3-0.2-2.1-0.3-2.2
			c-0.5-0.5-1.2-0.9-2.2-1.1C5.2,0.4,1.1,3.1,0.2,7.2c-0.8,4,1.4,6.7,3.9,7.1c2.8,0.5,5.8-0.7,7.6-2.3C11.9,11.9,12.4,11.4,12.1,11"
			/>
	</g>
	<path id="Fill-7" class="st1" d="M47.1,6.4c1-1,2.2-1.9,3.6-2.6c-6.3-2.8-8.4,2.5-8.4,2.5C44.7,5.3,46.5,6.1,47.1,6.4"/>
	<g id="Group-11" transform="translate(0.000000, 0.048020)">
		<g id="Clip-10">
		</g>
		<defs>
			<filter id="Adobe_OpacityMaskFilter_2_" filterUnits="userSpaceOnUse" x="0" y="1.1" width="38.9" height="22.3">
				<feColorMatrix  type="matrix" values="1 0 0 0 0  0 1 0 0 0  0 0 1 0 0  0 0 0 1 0"/>
			</filter>
		</defs>
		<mask maskUnits="userSpaceOnUse" x="0" y="1.1" width="38.9" height="22.3" id="mask-6_1_">
			<g class="st5">
				<polygon id="path-5_1_" class="st1" points="38.9,1.1 0,1.1 0,23.4 38.9,23.4 				"/>
			</g>
		</mask>
		<path id="Fill-9" class="st6" d="M31.6,18.2c-2.4,3.5-4.5,1.2-3-3.8c1.7-3.5,1.4-6.5-3.7-5.1c0,0,0.7,5.8-2.3,10.1
			s-5.4-0.7-0.8-8.3c0,0-6-2.4-6.8,5.5c0,0-0.3,0.8-0.8,1.8c-0.2,0.3-0.4,0.6-0.6,1c-3.1,4.8-4.4-3-1.1-12.2c0,0,12.2,2.7,9.1-5.6
			c0,0-4.6,2.8-8.1,3.1c0.5-1.1,1-2.1,1.6-3.2c0,0-4.4-2.4-6.9,3.7c0,0-4.5,0.4-6.6,1.9s-2.3,4.7,0.3,6.1c0,0,0.9-2.7,3.6-4.3
			C5.6,8.9,7.9,7.4,10.3,7c0,0-2,0.5-3.2,2.4c-1.6,8.2,0,13.8,2.5,14c1.8,0.1,4.1-1.7,5.6-4c0.4,1.6,2,5.1,6.7,2.3
			c0.9-0.5,1.8-1.2,2.6-2c0.9,1.6,2.7,3,6.4,0.9c6.4-3.7,12.6-15.5,3.1-13C34,7.6,34.7,13.7,31.6,18.2z"/>
	</g>
	<g>
		<circle id="Oval-6" class="st7" cx="71" cy="9" r="8"/>
		<g class="st8">
			<path class="st1" d="M70.7,12.2l-2.2-5.7h0c0,0.5,0.1,1,0.1,1.6v4.1h-0.7V5.8h1.1l2,5.3h0l2.1-5.3h1.1v6.4h-0.7V8.1
				c0-0.5,0-1,0.1-1.5h0l-2.2,5.7H70.7z"/>
		</g>
	</g>
</g>
</svg>
