<?xml version="1.0" encoding="UTF-8"?>
<svg width="80px" height="29px" viewBox="0 0 80 29" version="1.1" xmlns="http://www.w3.org/2000/svg" xmlns:xlink="http://www.w3.org/1999/xlink">
    <!-- Generator: Sketch 48.2 (47327) - http://www.bohemiancoding.com/sketch -->
    <title>Group 7</title>
    <desc>Created with Sketch.</desc>
    <defs>
        <polygon id="path-1" points="0.076915566 21.037158 28.3146147 21.037158 28.3146147 0.0894059908 0.076915566 0.0894059908 0.076915566 21.037158"></polygon>
        <polygon id="path-3" points="12.2055863 13.4825515 12.2055863 0.0349949777 0.000109178532 0.0349949777 0.000109178532 13.4825515 12.2055863 13.4825515"></polygon>
        <polygon id="path-5" points="38.9425882 0.0663127807 4.04113904e-05 0.0663127807 4.04113904e-05 22.3580532 38.9425882 22.3580532 38.9425882 0.0663127807"></polygon>
    </defs>
    <g id="channels" stroke="none" stroke-width="1" fill="none" fill-rule="evenodd" transform="translate(-156.000000, -28.000000)">
        <g id="Group-7" transform="translate(156.000000, 29.000000)">
            <g id="Logo">
                <g id="Group-3" transform="translate(22.242631, 5.993303)">
                    <mask id="mask-2" fill="white">
                        <use xlink:href="#path-1"></use>
                    </mask>
                    <g id="Clip-2"></g>
                    <path d="M22.777394,18.5904908 C23.4363033,18.1903275 23.7522862,17.2470853 23.7522862,17.2470853 C22.1451988,17.213243 21.5268766,15.8058114 21.2896601,14.6577999 C23.2143356,14.5117975 24.7323378,14.9533491 24.8414872,16.1323446 C25.0134663,17.9902458 22.777394,18.5904908 22.777394,18.5904908 M21.1451977,13.1219731 L21.1445098,13.1219731 L21.1349936,13.1286043 C21.0255002,12.4254602 19.9782621,5.47610943 23.9813624,0.421131891 C20.7916086,-0.510905676 18.7589303,0.420903226 17.331733,4.49902491 C15.8412475,8.75790608 17.0451012,13.6170323 17.0451012,13.6170323 C15.927237,13.9314463 14.6947201,14.3030265 8.96208332,15.9036799 C3.22944654,17.5043332 0.678423168,15.332018 0.678423168,15.332018 C-1.90126339,22.1062115 4.37597389,21.8203806 8.90475696,19.7052315 C13.43354,17.5900825 17.7521646,15.4653295 17.7521646,15.4653295 C17.7521646,15.4656725 19.1662915,20.3435492 24.7268345,20.3435492 C30.2873775,20.3435492 29.6008369,12.7798906 21.1451977,13.1219731" id="Fill-1" fill="#FFFFFF" mask="url(#mask-2)"></path>
                </g>
                <g id="Group-6" transform="translate(45.975747, 5.535974)">
                    <mask id="mask-4" fill="white">
                        <use xlink:href="#path-3"></use>
                    </mask>
                    <g id="Clip-5"></g>
                    <path d="M12.1261205,9.96408983 C11.7821623,9.40260351 10.7750526,10.1573116 10.2545292,10.4817869 C10.2531534,10.4825872 10.2517776,10.4832732 10.2505164,10.4840735 C8.94358984,11.3566582 7.35450292,11.9558742 6.06362777,11.7300678 C4.24259837,11.421256 3.59160013,8.6398922 4.43842524,5.77483708 C5.28272799,3.04949612 6.74649946,0.914224581 8.04620287,1.05485341 C9.02017786,1.13945937 9.38018745,1.92640915 9.21600474,2.6560784 C9.0550323,3.21264843 8.64984953,3.7404067 7.87410912,3.72359984 C8.63333953,4.79466558 10.5785378,4.84394283 11.1277245,3.43296693 C11.6387317,2.12020253 10.9166488,1.32021886 10.8136906,1.21526174 C10.3018808,0.729349122 9.57337731,0.361770519 8.66291994,0.155972234 C5.21932502,-0.573697019 1.0902214,2.06589465 0.179764024,6.224392 C-0.664653374,10.18498 1.60902503,12.9104353 4.04677149,13.3587325 C6.83696047,13.8772299 9.80692494,12.6983487 11.6923892,11.1074136 C11.9161913,10.9061886 12.3942932,10.4017542 12.1261205,9.96408983" id="Fill-4" fill="#FFFFFF" mask="url(#mask-4)"></path>
                </g>
                <path d="M47.089713,5.43641323 C48.0561209,4.45601307 49.2519489,3.57851205 50.7311985,2.87491058 C44.4189922,0.0402678644 42.3403381,5.4045145 42.3403381,5.4045145 C44.7292425,4.31789955 46.4786139,5.08221151 47.089713,5.43641323" id="Fill-7" fill="#FFFFFF"></path>
                <g id="Group-11" transform="translate(0.000000, 0.048020)">
                    <mask id="mask-6" fill="white">
                        <use xlink:href="#path-5"></use>
                    </mask>
                    <g id="Clip-10"></g>
                    <path d="M31.5868516,17.2185022 C29.1609144,20.6998089 27.1030124,18.3787472 28.5482102,13.4401601 C30.297467,9.94890649 29.9408969,6.96837566 24.8148878,8.33830625 C24.8148878,8.33830625 25.4709307,14.1539371 22.4820486,18.443002 C19.4931664,22.732067 17.0874081,17.7886778 21.7166269,10.1557338 C21.7166269,10.1557338 15.7479201,7.78390853 14.9550965,15.607902 C14.9550965,15.607902 14.6543623,16.4230919 14.1894455,17.3933165 C14.0132242,17.7127611 13.8233593,18.0300335 13.6190481,18.3498212 C10.5211312,23.1973998 9.20686691,15.3222997 12.4749285,6.15581543 C12.4768776,6.15627276 24.6826932,8.88801633 21.5874133,0.542552879 C21.5874133,0.542552879 16.9622073,3.38016823 13.4561266,3.69058065 C13.9240244,2.62957615 14.4546373,1.56514169 15.052322,0.513969784 C15.052322,0.513969784 10.6520646,-1.83910494 8.19643235,4.24417803 C8.19551513,4.24417803 3.73024969,4.65851858 1.60917408,6.11625643 C-0.511901534,7.57399428 -0.655217454,10.8610502 1.89580592,12.2044557 C1.89580592,12.2044557 2.7960592,9.51821641 5.50495938,7.92510902 C5.59037567,7.87388812 7.93731717,6.38356554 10.2876983,6.03473744 C10.2876983,6.03473744 8.30156891,6.57735892 7.07283554,8.39341445 C5.49555786,16.6287758 7.09679797,22.1726386 9.60620239,22.3514545 C11.4409901,22.482022 13.7239554,20.6581919 15.1627326,18.3684573 C15.5932536,19.969568 17.1158419,23.4557909 21.8988101,20.7056399 C22.7983755,20.1885145 23.6950745,19.4985186 24.5410971,18.7077958 C25.4311462,20.2819241 27.2701761,21.7212544 30.9754086,19.5908991 C37.3386354,15.932263 43.5872095,4.07027848 34.0328531,6.62366354 C34.0328531,6.62366354 34.7207695,12.7213524 31.5868516,17.2185022 Z" id="Fill-9" fill="#FFFFFF" mask="url(#mask-6)"></path>
                </g>
            </g>
            <g id="Group-5" transform="translate(63.000000, 0.000000)">
                <circle id="Oval-6" stroke="#FFFFFF" opacity="0.5" cx="8" cy="8" r="8"></circle>
                <text id="M" opacity="0.900000036" font-family="OpenSans-Bold, Open Sans" font-size="9" font-weight="bold" fill="#FFFFFF">
                    <tspan x="4" y="12">M</tspan>
                </text>
            </g>
        </g>
    </g>
</svg>